# xmcd
#
# Track frame offsets: 
#        150
#        18198
#        31743
#        48816
#        70033
#        87031
#        106981
#        123813
#        140536
#        154753
#
# Disc length: 2300 seconds
#
# Revision: 5
# Processed by: cddbd v1.5.2PL0 Copyright (c) Steve Scherf et al.
# Submitted via: ExactAudioCopy v1.0b6
#
DISCID=6c08fa0a
DTITLE=???? - SQUALL
DYEAR=1980
DGENRE=Japanese Pop
TTITLE0=????????????
TTITLE1=????????
TTITLE2=SQUALL
TTITLE3=??????????
TTITLE4=?????
TTITLE5=??????????????
TTITLE6=???????
TTITLE7=?????
TTITLE8=??????
TTITLE9=??
EXTD=YEAR: 1980
EXTT0=
EXTT1=
EXTT2=
EXTT3=
EXTT4=
EXTT5=
EXTT6=
EXTT7=
EXTT8=
EXTT9=
PLAYORDER=
